<svg viewBox="0 0 55 56" fill="none" xmlns="http://www.w3.org/2000/svg">
<g id="borrow-icon 1" clip-path="url(#clip0_2066_172)">
<path id="Vector" fill-rule="evenodd" clip-rule="evenodd" d="M30.5562 21.476C30.6387 21.4596 30.7259 21.4419 30.8197 21.426C31.9282 21.2234 33.8846 20.9827 36.0614 21.2388C40.3509 21.7473 43.428 23.8919 45.2276 27.6045C45.2764 27.7072 45.3283 27.8044 45.375 27.9094C45.3841 27.9272 45.3944 27.9445 45.4016 27.9619C45.4197 27.9935 45.5315 28.1904 45.7686 28.4804V26.3564C45.7686 26.1018 45.7934 25.8559 45.8353 25.6152C43.7439 22.2852 40.4648 20.2787 36.2424 19.7797C34.3153 19.5503 32.5611 19.677 31.318 19.8522C31.097 20.4099 30.8447 20.9535 30.5562 21.476Z" fill="#006AC7"/>
<path id="Vector_2" fill-rule="evenodd" clip-rule="evenodd" d="M45.8645 51.5126H41.6109H35.4464C35.4199 51.5126 35.3953 51.5148 35.3687 51.5182C25.0463 52.5623 20.0063 51.1825 17.5604 49.7366H15.1192C16.7723 51.3781 20.4758 53.351 28.7636 53.351C30.7327 53.351 32.9633 53.2381 35.4846 52.9846H46.4794C46.193 52.5394 45.9811 52.0442 45.8645 51.5126Z" fill="#006AC7"/>
<path id="Vector_3" fill-rule="evenodd" clip-rule="evenodd" d="M4.33824 27.2093C2.77361 27.2093 1.50223 25.965 1.50223 24.4352C1.50223 22.9076 2.77361 21.6628 4.33824 21.6628H4.37883C4.11726 21.2047 3.87991 20.7335 3.67085 20.2456C1.59329 20.563 0 22.3179 0 24.4352C0 25.8929 0.753336 27.1809 1.89988 27.9455C2.59524 27.4802 3.4352 27.2093 4.33824 27.2093Z" fill="#006AC7"/>
<path id="Vector_4" fill-rule="evenodd" clip-rule="evenodd" d="M25.7438 31.5771H24.242C24.1772 33.0491 22.9358 34.2276 21.4145 34.2276C22.3189 34.2276 23.1554 34.4999 23.8494 34.9628C24.9653 34.2203 25.7053 32.9833 25.7438 31.5771Z" fill="#006AC7"/>
<path id="Vector_5" fill-rule="evenodd" clip-rule="evenodd" d="M4.33824 34.2277C2.77361 34.2277 1.50223 32.9834 1.50223 31.4536C1.50223 29.9256 2.77361 28.6802 4.33824 28.6802H8.59636C8.45141 28.2557 8.36718 27.8042 8.36718 27.3317C8.36718 27.2914 8.37059 27.2497 8.37264 27.2092H4.33824C3.4352 27.2092 2.59524 27.4803 1.89988 27.9455C0.753336 28.711 0 29.9968 0 31.4536C0 32.9113 0.753336 34.1993 1.89988 34.9626C2.59524 34.4997 3.4352 34.2277 4.33824 34.2277Z" fill="#006AC7"/>
<path id="Vector_6" fill-rule="evenodd" clip-rule="evenodd" d="M0 38.4717C0 40.504 1.46404 42.2032 3.41508 42.6197C4.20832 41.7774 5.34259 41.2471 6.60031 41.2471H4.33825C2.77361 41.2471 1.5019 40.0018 1.5019 38.4717C1.5019 36.9441 2.77361 35.6983 4.33825 35.6983H21.4143C22.979 35.6983 24.2487 36.9441 24.2487 38.4717C24.2487 40.0018 22.979 41.2471 21.4143 41.2471H23.6778C23.9938 41.2471 24.3025 41.2813 24.5995 41.3445C25.313 40.5891 25.7533 39.5797 25.7533 38.4717C25.7533 37.0164 24.9979 35.728 23.8497 34.9625C23.1553 34.5001 22.3187 34.2278 21.4143 34.2278H4.33825C3.43486 34.2278 2.5949 34.5001 1.89955 34.9625C0.753336 35.728 0 37.0164 0 38.4717Z" fill="#006AC7"/>
<path id="Vector_7" fill-rule="evenodd" clip-rule="evenodd" d="M6.60013 42.7169H21.4142H23.6776C25.2409 42.7169 26.5132 43.9626 26.5132 45.4903C26.5132 47.0204 25.2409 48.2658 23.6776 48.2658H6.60013C5.03752 48.2658 3.76718 47.0204 3.76718 45.4903C3.76718 43.9626 5.03752 42.7169 6.60013 42.7169ZM17.5605 49.7364H23.6776C24.4743 49.7364 25.219 49.5202 25.8606 49.1527C27.1452 48.4156 28.0152 47.0507 28.0152 45.4903C28.0152 43.4597 26.5483 41.7592 24.5994 41.3448C24.3024 41.2811 23.9941 41.2473 23.6776 41.2473H21.4142H6.60013C5.34241 41.2473 4.20814 41.7776 3.4149 42.6195C2.70214 43.3743 2.26187 44.3825 2.26187 45.4903C2.26187 47.8317 4.20814 49.7364 6.60013 49.7364H15.1191H17.5605Z" fill="#006AC7"/>
<path id="Vector_8" fill-rule="evenodd" clip-rule="evenodd" d="M4.37875 21.6629C5.40866 23.4727 6.81916 25.0496 8.50589 26.2844C8.63617 25.7845 8.85545 25.3197 9.14908 24.9085C6.02115 22.5049 4.00702 18.7761 4.00702 14.5898C4.00702 7.35613 10.0225 1.47162 17.414 1.47162C24.8071 1.47162 30.8218 7.35613 30.8218 14.5898C30.8218 17.829 29.615 20.797 27.6193 23.0868H29.5257C29.9035 22.574 30.2476 22.0347 30.5563 21.4757C30.8444 20.9532 31.0971 20.4099 31.3181 19.852C31.9667 18.2195 32.3238 16.4455 32.3238 14.5898C32.3238 6.54457 25.6365 0 17.414 0C9.19307 0 2.50513 6.54457 2.50513 14.5898C2.50513 16.5943 2.9188 18.5058 3.67076 20.2457C3.87982 20.7333 4.11684 21.2048 4.37875 21.6629Z" fill="#006AC7"/>
<path id="Vector_9" fill-rule="evenodd" clip-rule="evenodd" d="M16.6626 20.1309H13.4009H12.8832C12.4696 20.1309 12.132 20.4601 12.132 20.867C12.132 21.2724 12.4696 21.6004 12.8832 21.6004H16.6626V20.1309Z" fill="#006AC7"/>
<path id="Vector_10" fill-rule="evenodd" clip-rule="evenodd" d="M16.6626 13.6714H15.972C14.6822 13.6714 13.6373 12.5525 13.6373 11.1756C13.6373 9.80245 14.6822 8.68354 15.972 8.68354H16.6626V7.21191H15.972C13.8531 7.21191 12.132 8.98987 12.132 11.1756C12.132 13.3631 13.8531 15.1433 15.972 15.1433H16.6626V13.6714Z" fill="#006AC7"/>
<path id="Vector_11" fill-rule="evenodd" clip-rule="evenodd" d="M18.1679 15.1431H18.8554C20.1448 15.1431 21.1932 16.2606 21.1932 17.6365C21.1932 19.012 20.1448 20.1306 18.8554 20.1306H18.1679V21.6006H18.8554C20.9742 21.6006 22.6978 19.8236 22.6978 17.6365C22.6978 15.5071 21.0612 13.7629 19.0204 13.6755C18.9966 13.6721 18.9718 13.6711 18.9444 13.6711H18.1679V15.1431Z" fill="#006AC7"/>
<path id="Vector_12" fill-rule="evenodd" clip-rule="evenodd" d="M18.1679 8.68363H21.4303H21.9444C22.3602 8.68363 22.6978 8.3546 22.6978 7.94682C22.6978 7.54204 22.3602 7.21167 21.9444 7.21167H18.1679V8.68363Z" fill="#006AC7"/>
<path id="Vector_13" fill-rule="evenodd" clip-rule="evenodd" d="M18.1679 21.6007V20.131V15.1432V13.6715V13.3355V8.6837V7.21174V5.45113C18.1679 5.04567 17.8296 4.71631 17.416 4.71631C17.0002 4.71631 16.6626 5.04567 16.6626 5.45113V7.21174V8.6837V13.6715V15.1432V15.4778V20.131V21.6007V23.087H18.1679V21.6007Z" fill="#006AC7"/>
<path id="Vector_14" fill-rule="evenodd" clip-rule="evenodd" d="M12.7041 31.577H24.2419H25.7437H29.0524C29.1414 32.5701 29.5105 34.3091 30.9386 35.6865C32.2826 36.9836 34.2176 37.6397 36.7028 37.6397C37.097 37.6397 37.5055 37.623 37.9258 37.5907C38.3401 37.5567 38.6477 37.2033 38.614 36.7984C38.5825 36.392 38.2206 36.089 37.8053 36.124C37.6774 36.1324 37.5519 36.1418 37.4247 36.1481C35.003 36.2772 33.1778 35.774 32.0051 34.6498C30.4176 33.1278 30.5315 30.91 30.5315 30.8903C30.5474 30.687 30.4735 30.4889 30.3305 30.339C30.1874 30.1918 29.9888 30.1074 29.7829 30.1074H12.7041C11.1422 30.1074 9.86911 28.8627 9.86911 27.3316C9.86911 25.803 11.1422 24.5586 12.7041 24.5586H29.7829C29.9234 24.5586 30.0581 24.5182 30.172 24.4494C30.3882 24.3213 30.5342 24.0894 30.5342 23.8242C30.5342 23.4171 30.1966 23.0867 29.7829 23.0867H29.5257H27.6195H18.1678H16.6625H12.7041C11.2336 23.0867 9.93255 23.8084 9.14919 24.9086C8.85556 25.3198 8.63628 25.7846 8.50568 26.2846C8.42859 26.5805 8.38392 26.8912 8.37266 27.2092C8.37062 27.2496 8.36722 27.2913 8.36722 27.3316C8.36722 27.8043 8.4511 28.256 8.59638 28.6801C9.17273 30.3611 10.793 31.577 12.7041 31.577Z" fill="#006AC7"/>
<path id="Vector_15" fill-rule="evenodd" clip-rule="evenodd" d="M46.8532 27.2713C46.8532 25.6024 48.2385 24.2466 49.942 24.2466C51.6478 24.2466 53.033 25.6024 53.033 27.2713V51.5034C53.033 53.1706 51.6478 54.5281 49.942 54.5281C48.2385 54.5281 46.8532 53.1706 46.8532 51.5034V27.2713ZM45.3513 29.395V51.5034C45.3513 51.82 45.3845 52.1297 45.4472 52.4274C45.5638 52.9589 45.7755 53.4543 46.0621 53.8993C46.8778 55.159 48.3105 56 49.942 56C52.4755 56 54.5377 53.9811 54.5377 51.5034V27.2713C54.5377 24.7922 52.4755 22.7756 49.942 22.7756C47.6694 22.7756 45.7803 24.4017 45.4179 26.5297C45.3759 26.7704 45.3513 27.0162 45.3513 27.2713V29.395Z" fill="#006AC7"/>
</g>
<defs>
<clipPath id="clip0_2066_172">
<rect width="55" height="56" fill="white"/>
</clipPath>
</defs>
</svg>
