<svg viewBox="0 0 43 58" fill="none" xmlns="http://www.w3.org/2000/svg">
<g id="algo-liquid-governance-icon 1" clip-path="url(#clip0_2066_188)">
<g id="Clip path group">
<mask id="mask0_2066_188" style="mask-type:luminance" maskUnits="userSpaceOnUse" x="0" y="0" width="43" height="58">
<g id="clip0_21_135">
<path id="Vector" d="M43 0H0V58H43V0Z" fill="white"/>
</g>
</mask>
<g mask="url(#mask0_2066_188)">
<g id="Group">
<path id="Vector_2" d="M29.9463 43.311H26.658L24.5252 35.7494L19.9345 43.311H16.2662L23.3592 31.6049L22.2166 27.5411L12.6555 43.3136H8.98718L21.1057 23.3188H24.3208L25.7277 28.2863H29.0423L26.7785 32.0361L29.9491 43.311H29.9463Z" fill="#006AC7"/>
<path id="Vector_3" d="M21.9961 1.60873C21.1715 0.810442 20.8913 0.810434 20.0665 1.60873C19.2726 2.38254 0 20.2209 0 37.193C0 48.442 9.40399 57.5954 20.9618 57.5954C32.5196 57.5954 41.9236 48.442 41.9236 37.193C41.9236 20.2209 22.7926 2.38256 21.9961 1.60873ZM20.9618 55.3102C11.715 55.3102 2.31538 46.1932 2.31538 37.193C2.31538 24.5287 16.6122 10.3092 20.9618 5.66104C25.3114 10.3092 39.3613 24.5106 39.3613 37.193C39.3613 46.1932 30.2086 55.3102 20.9618 55.3102Z" fill="#006AC7"/>
</g>
</g>
</g>
</g>
<defs>
<clipPath id="clip0_2066_188">
<rect width="43" height="58" fill="white"/>
</clipPath>
</defs>
</svg>
