<svg viewBox="0 0 75 52" fill="none" xmlns="http://www.w3.org/2000/svg">
<path id="Vector" d="M74.7109 27.806C73.9074 28.8854 72.783 29.3148 71.5053 29.5066C68.4673 29.9618 65.4349 30.4714 62.394 30.9181C61.8346 31.0011 61.5677 31.1986 61.3974 31.7598C59.955 36.5122 58.4644 41.2475 57.0248 46C56.7778 46.8131 56.3377 47.357 55.6307 47.7893C50.1196 51.1533 44.157 52.5475 37.7686 51.806C28.9752 50.7868 21.7264 46.8932 16.4794 39.5928C15.2869 37.9323 14.4124 36.0313 13.4839 34.1933C13.2624 33.7524 13.2624 33.0796 13.4101 32.59C14.8865 27.6829 16.4084 22.793 17.936 17.9031C18.0751 17.4622 18.0353 17.1845 17.6804 16.861C16.7207 15.9964 15.8008 15.086 14.807 14.1355C14.7133 14.3445 14.6338 14.4905 14.5856 14.6451C13.5804 17.886 12.5725 21.1268 11.5901 24.3734C11.5219 24.5967 11.5645 24.966 11.7093 25.1292C13.8786 27.5942 12.8167 30.9696 9.6338 31.671C9.57133 31.6853 9.51455 31.7197 9.38962 31.7683C9.39814 35.6677 9.40381 39.5842 9.41233 43.5493C6.24366 42.553 3.163 41.5854 0 40.5891C0.471326 39.8962 0.917099 39.2377 1.36855 38.5793C3.01819 36.183 4.665 33.781 6.32884 31.3962C6.57869 31.0383 6.64116 30.8264 6.30612 30.4399C4.35267 28.1868 5.47136 24.8171 8.37314 24.173C8.76213 24.0871 8.92397 23.9239 9.03754 23.5603C10.1676 19.8643 11.3062 16.1711 12.4646 12.4836C12.5838 12.1 12.5043 11.8795 12.2261 11.619C11.556 10.9949 10.8717 10.3765 10.2812 9.68078C9.22778 8.43827 9.09149 7.05834 9.85243 5.96469C10.4231 5.14303 11.2692 4.73363 12.2204 4.58476C14.8155 4.17822 17.4164 3.79745 20.0172 3.41668C27.5754 2.31445 35.1337 1.20363 42.6948 0.127164C46.2184 -0.37385 49.3161 0.605275 51.9141 3.07026C59.0152 9.81248 66.0964 16.5747 73.2004 23.3112C74.2481 24.3047 75.0488 25.3697 74.9977 26.8985C74.904 27.1991 74.8131 27.4997 74.7194 27.8003L74.7109 27.806ZM18.3505 13.7691C18.3249 13.8034 18.2994 13.8378 18.2738 13.875C18.4243 14.0267 18.5691 14.1842 18.7253 14.3302C24.0689 19.3461 29.4068 24.3734 34.7674 29.3721C36.7635 31.233 39.1485 31.9917 41.8487 31.5823C48.4444 30.5831 55.0345 29.5639 61.6273 28.5475C64.7534 28.0637 67.8767 27.5799 70.9971 27.0588C71.494 26.9758 71.9596 26.6924 72.4395 26.5034C72.147 26.0969 71.9085 25.6331 71.5536 25.2924C64.4411 18.5015 57.3144 11.7221 50.1877 4.94549C48.1605 3.01587 45.7471 2.26292 43.0014 2.66373C35.7072 3.72588 28.4187 4.81093 21.1273 5.89026C18.3306 6.30252 15.5311 6.71765 12.7372 7.15281C12.4476 7.19862 12.1807 7.39043 11.9024 7.51354C12.0529 7.79697 12.1494 8.1348 12.3652 8.35525C13.0552 9.0538 13.782 9.718 14.5174 10.3708C14.6878 10.5225 14.9376 10.617 15.1648 10.6656C16.4084 10.9204 17.6577 11.1552 18.907 11.3928C23.1546 12.1973 27.4051 12.9989 31.6527 13.7977C35.1564 14.4562 38.663 15.1003 42.1638 15.7788C42.4904 15.8418 42.9305 16.0193 43.0554 16.2741C43.2371 16.652 43.3251 17.1931 43.1973 17.5825C43.0128 18.1494 42.4449 18.3154 41.8657 18.2095C39.7391 17.823 37.6124 17.4279 35.4886 17.0271C29.7731 15.9449 24.0604 14.8598 18.3448 13.7748L18.3505 13.7691ZM58.8903 31.3818C58.5609 31.4248 58.3252 31.4506 58.0952 31.4878C52.8595 32.3008 47.621 33.0996 42.3881 33.9356C38.7709 34.5139 35.6448 33.509 32.9787 31.0297C28.9355 27.2707 24.9178 23.4859 20.8888 19.7125C20.7043 19.5379 20.5055 19.3776 20.2954 19.1943C20.2216 19.3317 20.1819 19.3861 20.162 19.4463C18.7594 23.9726 17.3539 28.5017 15.9712 33.0338C15.8973 33.28 15.9371 33.6321 16.062 33.8554C16.8826 35.347 17.6094 36.913 18.6089 38.2758C23.819 45.3759 30.9372 48.9717 39.5971 49.4813C44.7306 49.7819 49.5432 48.5308 53.9726 45.8769C54.2764 45.6937 54.5603 45.3243 54.6682 44.9808C56.0197 40.6978 57.34 36.4006 58.6659 32.109C58.7312 31.9 58.7937 31.6939 58.8903 31.3818Z" fill="#3669B0"/>
</svg>
