<svg viewBox="0 0 58 56" fill="none" xmlns="http://www.w3.org/2000/svg">
<g id="deposit-icon 1" clip-path="url(#clip0_2066_150)">
<path id="Vector" fill-rule="evenodd" clip-rule="evenodd" d="M32.3956 5.05691C32.0676 5.05691 31.7898 4.85042 31.6803 4.56079C31.666 4.60167 31.6517 4.6429 31.6438 4.68829C31.6389 4.70353 31.6302 4.75377 31.6118 4.82756C31.4637 5.43177 30.7366 7.82367 28.1091 9.95712H29.2329C29.5642 9.95712 29.8803 10.025 30.1647 10.1487C32.6208 7.65461 33.1201 5.12274 33.15 4.96475C33.1764 4.82547 33.1586 4.6869 33.1128 4.56079C33.0019 4.85042 32.7247 5.05691 32.3956 5.05691Z" fill="#006AC7"/>
<path id="Vector_2" fill-rule="evenodd" clip-rule="evenodd" d="M14.1857 9.9569H15.2315C12.7045 7.86918 12.0825 5.3931 11.9663 4.82734C11.9569 4.77052 11.95 4.72999 11.9479 4.71509C11.9364 4.63921 11.9114 4.57235 11.8815 4.50757C11.7866 4.82526 11.4966 5.05669 11.1503 5.05669C10.8405 5.05669 10.5783 4.8741 10.4573 4.61289C10.425 4.71648 10.4139 4.82629 10.4302 4.93889C10.4573 5.1045 10.8746 7.71017 13.2124 10.1682C13.5115 10.0331 13.838 9.9569 14.1857 9.9569Z" fill="#006AC7"/>
<path id="Vector_3" fill-rule="evenodd" clip-rule="evenodd" d="M11.15 5.05681C11.4963 5.05681 11.7863 4.82538 11.8816 4.50734C11.9025 4.43839 11.9174 4.36807 11.9174 4.29289C11.9174 2.76815 13.1601 1.52716 14.6896 1.52716C16.2208 1.52716 17.4648 2.76815 17.4648 4.29289C17.4648 3.38691 17.7507 2.5478 18.2301 1.85525C17.4533 0.736903 16.1568 0 14.6896 0C12.3148 0 10.382 1.92662 10.382 4.29289C10.382 4.40721 10.4105 4.51634 10.4574 4.61301C10.5781 4.87423 10.8402 5.05681 11.15 5.05681Z" fill="#006AC7"/>
<path id="Vector_4" fill-rule="evenodd" clip-rule="evenodd" d="M17.4649 4.29289C17.4649 4.47339 17.4806 4.65146 17.5036 4.82747C17.7678 6.94254 19.5797 8.58438 21.7719 8.58438C22.1953 8.58438 22.5399 8.24382 22.5399 7.82149C22.5399 7.61016 22.451 7.41822 22.3143 7.28104C22.1752 7.14384 21.9836 7.05653 21.7719 7.05653C20.2424 7.05653 18.9984 5.81728 18.9984 4.29289C18.9984 2.76815 20.2424 1.52751 21.7719 1.52751C23.3031 1.52751 24.55 2.76815 24.55 4.29289C24.55 3.38691 24.8322 2.5478 25.3132 1.85525C24.5364 0.736903 23.2412 0 21.7719 0C20.3064 0 19.0111 0.736903 18.2303 1.85525C17.7508 2.5478 17.4649 3.38691 17.4649 4.29289Z" fill="#006AC7"/>
<path id="Vector_5" fill-rule="evenodd" clip-rule="evenodd" d="M24.5499 4.29289C24.5499 4.50387 24.6313 4.69339 24.7735 4.83231C24.9097 4.97055 25.1014 5.05681 25.313 5.05681C25.5272 5.05681 25.7206 4.96812 25.8601 4.82747C25.9963 4.68923 26.0812 4.50076 26.0812 4.29289C26.0812 2.76815 27.3252 1.52751 28.8568 1.52751C30.3832 1.52751 31.63 2.76815 31.63 4.29289C31.63 4.38609 31.6505 4.47685 31.6805 4.5607C31.7895 4.85033 32.0674 5.05681 32.3953 5.05681C32.7249 5.05681 33.002 4.85033 33.1126 4.5607C33.1432 4.47685 33.1623 4.38609 33.1623 4.29289C33.1623 1.92662 31.2288 0 28.8568 0C27.3892 0 26.0922 0.736903 25.313 1.85525C24.8322 2.5478 24.5499 3.38691 24.5499 4.29289Z" fill="#006AC7"/>
<path id="Vector_6" fill-rule="evenodd" clip-rule="evenodd" d="M29.44 14.6107C36.8094 17.6273 42.012 24.8535 42.012 33.272C42.012 34.2066 41.9462 35.1273 41.8203 36.0287C42.3359 35.9822 42.8575 35.9458 43.3817 35.923C43.489 35.0533 43.5434 34.1678 43.5434 33.272C43.5434 24.638 38.455 17.165 31.1106 13.6763C30.7209 14.1967 30.1239 14.5494 29.44 14.6107Z" fill="#006AC7"/>
<path id="Vector_7" fill-rule="evenodd" clip-rule="evenodd" d="M10.4235 49.9604C5.06276 46.3295 1.53368 40.2036 1.53368 33.2721C1.53368 24.8582 6.72926 17.6353 14.0899 14.6153C13.3817 14.587 12.752 14.2452 12.34 13.7197C5.04502 17.2286 0 24.6736 0 33.2721C0 41.0946 4.17719 47.962 10.4249 51.7792C10.4249 51.7678 10.4235 51.7567 10.4235 51.7473V49.9604Z" fill="#006AC7"/>
<path id="Vector_8" fill-rule="evenodd" clip-rule="evenodd" d="M21.0316 38.3711H16.8954C16.4716 38.3711 16.1274 38.7113 16.1274 39.1349C16.1274 39.5562 16.4716 39.8968 16.8954 39.8968H21.0316V39.1349V38.3711Z" fill="#006AC7"/>
<path id="Vector_9" fill-rule="evenodd" clip-rule="evenodd" d="M23.3601 33.2324C24.7807 33.2324 25.9372 34.3858 25.9372 35.8003C25.9372 37.2174 24.7807 38.371 23.3601 38.371H22.5648V39.135V39.8969H23.3601C25.6264 39.8969 27.4698 38.0599 27.4698 35.8003C27.4698 33.6004 25.7185 31.7995 23.5312 31.7088C23.5061 31.7088 23.4811 31.7053 23.4578 31.7053H22.5648V33.2324H23.3601Z" fill="#006AC7"/>
<path id="Vector_10" fill-rule="evenodd" clip-rule="evenodd" d="M20.2383 31.7053C18.8169 31.7053 17.6606 30.5543 17.6606 29.1372C17.6606 27.7217 18.8169 26.5701 20.2383 26.5701H21.0314V25.0422H20.2383C17.9711 25.0422 16.1273 26.8802 16.1273 29.1372C16.1273 31.3966 17.9711 33.2324 20.2383 33.2324H21.0314V31.7053H20.2383Z" fill="#006AC7"/>
<path id="Vector_11" fill-rule="evenodd" clip-rule="evenodd" d="M26.7033 26.57C27.1272 26.57 27.4699 26.2284 27.4699 25.806C27.4699 25.3822 27.1272 25.042 26.7033 25.042H22.5651V26.57H26.7033Z" fill="#006AC7"/>
<path id="Vector_12" fill-rule="evenodd" clip-rule="evenodd" d="M21.797 39.8969C21.3779 39.8969 21.0316 39.5563 21.0316 39.135V39.8969V42.0864C21.0316 42.5092 21.3779 42.8508 21.797 42.8508C22.2221 42.8508 22.565 42.5092 22.565 42.0864V39.8969V39.135C22.565 39.5563 22.2221 39.8969 21.797 39.8969Z" fill="#006AC7"/>
<path id="Vector_13" fill-rule="evenodd" clip-rule="evenodd" d="M22.565 25.0421V23.2323C22.565 22.8099 22.2221 22.468 21.797 22.468C21.3779 22.468 21.0316 22.8099 21.0316 23.2323V25.0421V26.5699V31.7051V33.2326V38.1029V38.3712V39.135C21.0316 39.5563 21.3779 39.8969 21.797 39.8969C22.2221 39.8969 22.565 39.5563 22.565 39.135V38.3712V38.1029V33.2326V31.7051V26.5699V25.0421Z" fill="#006AC7"/>
<path id="Vector_14" fill-rule="evenodd" clip-rule="evenodd" d="M13.3769 12.2877C13.3769 11.8453 13.7389 11.4832 14.1857 11.4832H29.2331C29.6792 11.4832 30.0405 11.8453 30.0405 12.2877C30.0405 12.7305 29.6792 13.0939 29.2331 13.0939H14.1857C13.7389 13.0939 13.3769 12.7305 13.3769 12.2877ZM14.09 14.6155C14.122 14.6155 14.1537 14.6197 14.1857 14.6197H29.2331C29.3037 14.6197 29.3743 14.6155 29.44 14.6106C30.1239 14.5493 30.7209 14.1966 31.1106 13.6763C31.3999 13.2883 31.5731 12.8088 31.5731 12.2877C31.5731 11.3319 30.9938 10.5087 30.1645 10.1487C29.8802 10.025 29.5644 9.95679 29.2331 9.95679H28.1091H15.2315H14.1857C13.838 9.95679 13.5115 10.033 13.2125 10.1685C12.4086 10.5371 11.8429 11.3478 11.8429 12.2877C11.8429 12.8285 12.0303 13.3243 12.3401 13.7196C12.7521 14.2452 13.3818 14.5871 14.09 14.6155Z" fill="#006AC7"/>
<path id="Vector_15" fill-rule="evenodd" clip-rule="evenodd" d="M55.8641 49.2995V50.6288C55.8641 51.5556 52.0822 53.3552 45.1482 53.3552C39.6522 53.3552 36.1398 52.2242 34.9183 51.2934V51.7473C34.9183 52.1495 34.7859 52.5243 34.5466 52.8715C36.7845 54.1998 40.9818 54.883 45.1482 54.883C51.2349 54.883 57.394 53.421 57.394 50.6288V47.1287C57.394 47.9758 56.8244 48.7006 55.8641 49.2995Z" fill="#006AC7"/>
<path id="Vector_16" fill-rule="evenodd" clip-rule="evenodd" d="M34.4328 46.9655V45.8083C33.471 45.2082 32.9014 44.4848 32.9014 43.6367V45.7996C33.5621 46.1412 34.0851 46.5295 34.4328 46.9655Z" fill="#006AC7"/>
<path id="Vector_17" fill-rule="evenodd" clip-rule="evenodd" d="M55.8642 45.8082V47.1288C55.8642 48.0528 52.0823 49.856 45.1482 49.856C39.5441 49.856 36.0007 48.6785 34.8478 47.7382C34.8951 47.9032 34.9184 48.0697 34.9184 48.2457V49.574C37.2292 50.7661 41.2033 51.3828 45.1482 51.3828C49.3842 51.3828 53.6569 50.6745 55.8642 49.2994C56.8244 48.7003 57.394 47.9755 57.394 47.1288V43.6362C57.394 44.4846 56.8244 45.208 55.8642 45.8082Z" fill="#006AC7"/>
<path id="Vector_18" fill-rule="evenodd" clip-rule="evenodd" d="M55.864 42.3072V43.6367C55.864 44.5605 52.0822 46.3639 45.148 46.3639C38.2158 46.3639 34.4325 44.5605 34.4325 43.6367V42.3072C33.4712 41.7086 32.9013 40.9845 32.9013 40.135V43.6266V43.6367C32.9013 44.4847 33.4712 45.2082 34.4325 45.8082C36.6383 47.1812 40.909 47.8917 45.148 47.8917C49.384 47.8917 53.6568 47.1812 55.864 45.8082C56.8243 45.2082 57.3938 44.4847 57.3938 43.6367V43.6266V40.135C57.3938 40.9845 56.8243 41.7086 55.864 42.3072Z" fill="#006AC7"/>
<path id="Vector_19" fill-rule="evenodd" clip-rule="evenodd" d="M55.864 40.1351C55.864 41.0605 52.0822 42.8621 45.148 42.8621C38.2158 42.8621 34.4325 41.0605 34.4325 40.1351C34.4325 39.2088 38.2158 37.4082 45.148 37.4082C52.0822 37.4082 55.864 39.2088 55.864 40.1351ZM41.8203 36.0287C37.0058 36.4635 32.9013 37.8569 32.9013 40.1351C32.9013 40.9842 33.4712 41.7087 34.4325 42.3074C36.6383 43.6808 40.909 44.3906 45.148 44.3906C49.384 44.3906 53.6568 43.6808 55.864 42.3074C56.8243 41.7087 57.3938 40.9842 57.3938 40.1351C57.3938 37.3424 51.2348 35.8811 45.148 35.8811C44.557 35.8811 43.967 35.8938 43.3819 35.923C42.8575 35.9458 42.3359 35.9822 41.8203 36.0287Z" fill="#006AC7"/>
<path id="Vector_20" fill-rule="evenodd" clip-rule="evenodd" d="M34.9183 51.7474V51.2931V49.5744V48.2461C34.9183 49.0942 34.3463 49.8183 33.3849 50.4176V51.7474C33.3849 52.6716 29.6016 54.4722 22.6694 54.4722C15.7374 54.4722 11.9548 52.6716 11.9548 51.7474V50.4176C10.9938 49.8183 10.4236 49.0942 10.4236 48.2461V49.9603V51.7474C10.4236 51.7563 10.425 51.7678 10.425 51.7791C10.4758 54.5504 16.6108 56 22.6694 56C27.8782 56 33.1362 54.9298 34.5469 52.8713C34.7857 52.5241 34.9183 52.1492 34.9183 51.7474Z" fill="#006AC7"/>
<path id="Vector_21" fill-rule="evenodd" clip-rule="evenodd" d="M11.9548 48.2461C11.9548 47.3197 15.7374 45.518 22.6694 45.518C29.6016 45.518 33.3849 47.3197 33.3849 48.2461C33.3849 49.1694 29.6016 50.9719 22.6694 50.9719C15.7374 50.9719 11.9548 49.1694 11.9548 48.2461ZM34.4325 46.9656C34.0848 46.5297 33.5622 46.1413 32.9013 45.7994C30.5912 44.6052 26.6163 43.9895 22.6694 43.9895C16.584 43.9895 10.4236 45.4522 10.4236 48.2461C10.4236 49.0942 10.9938 49.8183 11.9548 50.4179C14.1606 51.7916 18.432 52.5001 22.6694 52.5001C26.9085 52.5001 31.1784 51.7916 33.3849 50.4179C34.3463 49.8183 34.9183 49.0942 34.9183 48.2461C34.9183 48.0701 34.8953 47.9033 34.8477 47.7384C34.7709 47.4647 34.6261 47.2098 34.4325 46.9656Z" fill="#006AC7"/>
</g>
<defs>
<clipPath id="clip0_2066_150">
<rect width="58" height="56" fill="white"/>
</clipPath>
</defs>
</svg>
