<svg viewBox="0 0 31 32" fill="none" xmlns="http://www.w3.org/2000/svg">
<path d="M15.1999 21.1491C6.83056 21.1491 0.307373 16.4898 0.307373 10.605H5.6615C5.6615 13.0568 9.59989 15.8155 15.1999 15.8155C20.7998 15.8155 24.7382 13.0568 24.7382 10.605H30.0923C30.0923 16.4898 23.5691 21.1491 15.1999 21.1491Z" fill="white"/>
<path d="M5.66158 0H0V32H5.66158V18.5136V13.3027V0Z" fill="white"/>
<path d="M24.7383 0V13.3027V18.5136V31.9386H30.3999V0H24.7383Z" fill="white"/>
<path d="M15.2004 11.7699C18.2933 11.7699 20.8004 9.27231 20.8004 6.19119C20.8004 3.11052 18.2933 0.612579 15.2004 0.612579C12.1075 0.612579 9.60043 3.11052 9.60043 6.19119C9.60043 9.27231 12.1075 11.7699 15.2004 11.7699Z" fill="#FFBE1D"/>
</svg>
