<svg viewBox="0 0 30 30" fill="none" xmlns="http://www.w3.org/2000/svg">
<path d="M0 20.27V1.3358C0 0.5978 0.5983 0 1.3358 0H29.7598L24.5081 5.3901H5.5281V14.1319C5.52803 14.3898 5.47599 14.645 5.37508 14.8823C5.27418 15.1196 5.12647 15.3341 4.9408 15.5131L0 20.27Z" fill="#6D748E"/>
<path d="M6.127 6.0808V8.8451H21.0532L23.8633 6.0808H6.127ZM20.2699 9.5825C19.4869 10.3197 17.7362 10.8725 17.7362 10.8725H6.1271C6.1734 10.8725 6.1271 9.5825 6.1271 9.5825H20.2699ZM30.0001 9.5825V28.5167C30.0001 29.2547 29.4018 29.8525 28.6642 29.8525H0.2402L5.4919 24.4624H24.4719V15.7207C24.4719 15.1997 24.6842 14.701 25.0593 14.3394L30.0001 9.5825Z" fill="#6D748E"/>
<path d="M23.8731 23.7709V21.0071H8.9469L6.1367 23.7709H23.8731ZM9.7295 20.2702C10.5125 19.5331 12.2632 18.9802 12.2632 18.9802H23.8723C23.826 18.9802 23.8723 20.2702 23.8723 20.2702H9.7295Z" fill="#6D748E"/>
</svg>
