<svg viewBox="0 0 20 20" fill="none" xmlns="http://www.w3.org/2000/svg">
<path d="M0 0L0.3125 0.859375L0 1.75781V2.65625L1.25 4.76562L0 6.875V8.125L1.25 10L0 11.875V13.125L1.25 15.2344L0 17.3438V20L0.859375 19.6875L1.75781 20H2.65625L4.76562 18.75L6.875 20H8.125L10 18.75L11.875 20H13.125L15.2344 18.75L17.3438 20H20L19.6875 19.1406L20 18.2422V17.3438L18.75 15.2344L20 13.125V11.875L18.75 10L20 8.125V6.875L18.75 4.76562L20 2.65625V0L19.1406 0.3125L18.2422 0H17.3438L15.2344 1.25L13.125 0H11.875L10 1.25L8.125 0H6.875L4.76562 1.25L2.65625 0H0Z" fill="#EEEEEE"/>
<path d="M13.125 0V4.21875L17.3438 0H13.125ZM20 2.65625L15.7812 6.875H20V2.65625ZM0 6.875H4.21875L0 2.65625V6.875ZM2.65625 0L6.875 4.21875V0H2.65625ZM6.875 20V15.7812L2.65625 20H6.875ZM0 17.3438L4.21875 13.125H0V17.3438ZM20 13.125H15.7812L20 17.3438V13.125ZM17.3438 20L13.125 15.7812V20H17.3438Z" fill="#0052B4"/>
<path d="M0 0V1.75781L5.11719 6.875H6.875L0 0ZM8.125 0V8.125H0V11.875H8.125V20H11.875V11.875H20V8.125H11.875V0H8.125ZM18.2422 0L13.125 5.11719V6.875L20 0H18.2422ZM6.875 13.125L0 20H1.75781L6.875 14.8828V13.125ZM13.125 13.125L20 20V18.2422L14.8828 13.125H13.125Z" fill="#D80027"/>
</svg>
