<svg width="48" height="48" viewBox="0 0 48 48" fill="none" xmlns="http://www.w3.org/2000/svg">
  <circle cx="24" cy="24" r="24" fill="#979797" fill-opacity=".2"/>
  <path d="M34.3077 17.0769C34.3077 19.8806 29.7612 22.1538 24.1538 22.1538C18.5465 22.1538 14 19.8806 14 17.0769M34.3077 17.0769C34.3077 14.2732 29.7612 12 24.1538 12C18.5465 12 14 14.2732 14 17.0769M34.3077 17.0769V30.9231C34.3077 33.7268 29.7612 36 24.1538 36C18.5465 36 14 33.7268 14 30.9231V17.0769M34.3077 17.0769V21.6923M14 17.0769V21.6923M34.3077 21.6923V26.3077C34.3077 29.1114 29.7612 31.3846 24.1538 31.3846C18.5465 31.3846 14 29.1114 14 26.3077V21.6923M34.3077 21.6923C34.3077 24.496 29.7612 26.7692 24.1538 26.7692C18.5465 26.7692 14 24.496 14 21.6923" stroke="#8F8F8F" stroke-width="1.5" stroke-linecap="round" stroke-linejoin="round"/>
</svg>