<svg xmlns="http://www.w3.org/2000/svg" fill="none" viewBox="0 0 32 32">
<path fill-rule="evenodd" clip-rule="evenodd" d="M16 0C24.8368 0 32 7.16327 32 16C32 24.836 24.8368 32 16 32C7.16327 32 0 24.836 0 16C0 7.16327 7.16327 0 16 0Z" fill="#2775CA"/>
<path fill-rule="evenodd" clip-rule="evenodd" d="M13.0006 27.1244C13.0006 27.5007 12.7059 27.7145 12.3419 27.6009C7.50428 26.0576 3.99683 21.5214 3.99683 16.1691C3.99683 10.8169 7.50428 6.28054 12.3419 4.73727C12.7059 4.62436 13.0006 4.83745 13.0006 5.21381V6.1429C13.0006 6.39345 12.8065 6.68836 12.5677 6.76999C8.74028 8.17545 5.99846 11.8524 5.99846 16.1627C5.99846 20.4731 8.74028 24.1507 12.5677 25.5554C12.8065 25.6434 13.0006 25.9318 13.0006 26.1833V27.1244Z" fill="white"/>
<path fill-rule="evenodd" clip-rule="evenodd" d="M16.9975 23.667C16.9975 23.9433 16.7716 24.1692 16.4956 24.1692H15.4978C15.2218 24.1692 14.996 23.9433 14.996 23.667V22.0861C12.8124 21.7913 11.746 20.5675 11.4573 18.905C11.4069 18.6223 11.6327 18.3652 11.9215 18.3652H13.0635C13.3018 18.3652 13.5027 18.5348 13.5529 18.7728C13.7664 19.7643 14.3373 20.5235 16.0876 20.5235C17.3802 20.5235 18.2965 19.8019 18.2965 18.7232C18.2965 17.6435 17.7567 17.2359 15.8618 16.9219C13.0635 16.5455 11.7396 15.6983 11.7396 13.5023C11.7396 11.8083 13.0198 10.4908 15.0024 10.2083V8.65843C15.0024 8.38225 15.2284 8.15625 15.5042 8.15625H16.502C16.778 8.15625 17.0038 8.38225 17.0038 8.65843V10.2523C18.6164 10.5413 19.6391 11.4568 19.9718 12.9752C20.0344 13.2643 19.8085 13.5335 19.5138 13.5335H18.4595C18.2336 13.5335 18.0455 13.3828 17.9765 13.1633C17.6942 12.1975 17.0038 11.7835 15.8053 11.7835C14.4815 11.7835 13.7975 12.4233 13.7975 13.3204C13.7975 14.2679 14.1867 14.7444 16.2198 15.0399C18.9676 15.4163 20.386 16.2004 20.386 18.5413C20.386 20.3168 19.0682 21.7537 17.0038 22.0861V23.667H16.9975Z" fill="white"/>
<path fill-rule="evenodd" clip-rule="evenodd" d="M19.6581 27.6009C19.2944 27.7146 18.9993 27.5007 18.9993 27.1244V26.196C18.9993 25.9198 19.1688 25.6627 19.4322 25.5682C23.2597 24.1627 26.0015 20.4858 26.0015 16.1755C26.0015 11.8651 23.2597 8.18819 19.4322 6.78273C19.1939 6.69473 18.9993 6.40637 18.9993 6.15491V5.22655C18.9993 4.85019 19.2944 4.63073 19.6581 4.74928C24.4957 6.29346 28.0031 10.8296 28.0031 16.1818C27.9971 21.5213 24.4957 26.0513 19.6581 27.6009Z" fill="white"/>
</svg>