<svg xmlns="http://www.w3.org/2000/svg" fill="none" viewBox="0 0 32 32">
<path d="M32 16.0001C32 24.8368 24.8369 32.0001 16.0001 32.0001C7.16353 32.0001 0 24.8368 0 16.0001C0 7.16338 7.16353 0 16.0001 0C24.8369 0 32 7.16338 32 16.0001Z" fill="#1BA27A"/>
<path d="M23.5093 8.06823H8.35889V11.7259H14.1053V17.1018H17.7629V11.7259H23.5093V8.06823Z" fill="white"/>
<path d="M15.9688 17.6745C11.2152 17.6745 7.36127 16.9222 7.36127 15.994C7.36127 15.066 11.215 14.3135 15.9688 14.3135C20.7224 14.3135 24.5762 15.066 24.5762 15.994C24.5762 16.9222 20.7224 17.6745 15.9688 17.6745ZM25.6336 16.2742C25.6336 15.0773 21.3065 14.1073 15.9688 14.1073C10.6312 14.1073 6.30383 15.0773 6.30383 16.2742C6.30383 17.3281 9.65918 18.2062 14.1054 18.4008V26.1182H17.7627V18.4038C22.2432 18.2153 25.6336 17.3336 25.6336 16.2742Z" fill="white"/>
</svg>