<svg xmlns="http://www.w3.org/2000/svg" fill="none" viewBox="0 0 775 150">
<path d="M750.169 21.3951V12.762H764.163V11.0775H750.169V3.07611H765.005V1.3916H748.17V23.1849H765.11L765.425 21.3951H750.169Z" fill="#006AC7"/>
<path fill-rule="evenodd" clip-rule="evenodd" d="M747.411 0.786621H765.764V3.9914H750.929V10.4725H764.922V13.6773H750.929V20.7902H766.331L765.747 24.1002H747.411V0.786621ZM748.93 2.30689V22.58H764.472L764.52 22.3104H749.41V12.1571H763.403V11.9928H749.41V2.47113H764.245V2.30689H748.93Z" fill="#006AC7"/>
<path d="M732.494 20.448C731.021 21.3955 729.127 21.9219 726.812 21.9219C723.866 21.9219 721.552 21.0796 719.868 19.3951C718.185 17.7106 717.343 15.2891 717.343 12.3413C717.343 10.3409 717.764 8.55111 718.501 7.07716C719.237 5.60322 720.394 4.5504 721.762 3.70814C723.13 2.97117 724.813 2.55004 726.707 2.55004C728.917 2.55004 730.705 2.97117 732.073 3.91871C733.441 4.86624 734.388 6.23491 735.019 8.12998L737.018 7.81414C736.387 5.49794 735.229 3.70814 733.441 2.55004C731.652 1.39194 729.443 0.760254 726.812 0.760254C724.498 0.760254 722.393 1.28666 720.71 2.2342C718.921 3.18174 717.659 4.5504 716.712 6.34019C715.765 8.0247 715.344 10.0251 715.344 12.236C715.344 14.4469 715.87 16.6578 716.817 18.3423C717.764 20.0268 719.132 21.3955 720.921 22.2377C722.604 23.1853 724.708 23.6064 727.023 23.6064C729.969 23.6064 732.284 22.9747 734.177 21.6061C735.966 20.2374 737.123 18.4476 737.544 16.0261H735.44C734.809 18.0265 733.862 19.5004 732.494 20.448Z" fill="#006AC7"/>
<path fill-rule="evenodd" clip-rule="evenodd" d="M720.346 1.56682C722.157 0.549747 724.39 0 726.812 0C729.567 0 731.925 0.663005 733.853 1.91174C735.833 3.19379 737.082 5.16126 737.751 7.61401L737.974 8.43253L734.502 8.98112L734.298 8.37024C733.707 6.59493 732.845 5.37784 731.641 4.54357C730.446 3.71572 728.829 3.31006 726.707 3.31006C724.934 3.31006 723.383 3.7023 722.141 4.36702C720.86 5.15893 719.831 6.11439 719.18 7.41699C718.501 8.77488 718.103 10.4465 718.103 12.3411C718.103 15.1469 718.902 17.3527 720.405 18.8575C721.914 20.3672 724.017 21.1616 726.812 21.1616C729.006 21.1616 730.746 20.6648 732.072 19.8155C733.254 18.9926 734.119 17.6878 734.715 15.7971L734.883 15.2659H738.447L738.292 16.1562C737.838 18.7722 736.574 20.7288 734.639 22.2098L734.63 22.2161L734.622 22.2222C732.565 23.7088 730.081 24.3664 727.023 24.3664C724.635 24.3664 722.4 23.9351 720.572 22.9136C718.637 21.9958 717.166 20.5135 716.155 18.7149C715.134 16.8989 714.584 14.5554 714.584 12.2359C714.584 9.93506 715.022 7.80078 716.045 5.9759C717.051 4.07726 718.412 2.59339 720.346 1.56682ZM726.812 1.52027C724.609 1.52027 722.637 2.02163 721.082 2.8966L721.074 2.90135L721.065 2.90588C719.429 3.77269 718.269 5.02167 717.383 6.69573L717.379 6.70429L717.374 6.71274C716.507 8.255 716.104 10.1184 716.104 12.2359C716.104 14.3382 716.606 16.4165 717.479 17.9695C718.358 19.5322 719.614 20.7822 721.244 21.5498L721.269 21.5616L721.293 21.5751C722.828 22.439 724.792 22.8462 727.023 22.8462C729.852 22.8462 731.995 22.2424 733.724 20.9958C735.134 19.9143 736.107 18.5614 736.597 16.7861H735.985C735.32 18.6366 734.342 20.0922 732.926 21.0728L732.916 21.0802L732.905 21.0872C731.286 22.1287 729.242 22.6819 726.812 22.6819C723.716 22.6819 721.189 21.7918 719.331 19.9325C717.468 18.0683 716.583 15.4312 716.583 12.3411C716.583 10.2351 717.027 8.3271 717.821 6.7371C718.64 5.09819 719.918 3.95098 721.364 3.06065L721.383 3.04915L721.402 3.03875C722.892 2.23575 724.702 1.78979 726.707 1.78979C729.004 1.78979 730.965 2.22639 732.505 3.29361C733.879 4.24488 734.85 5.5656 735.52 7.28114L736.032 7.20024C735.408 5.42877 734.42 4.08909 733.028 3.18811C731.379 2.12065 729.318 1.52027 726.812 1.52027Z" fill="#006AC7"/>
<path d="M702.193 20.2375L686.411 1.39209H684.412V23.1854H686.411V4.2347L702.193 23.1854H704.192V1.39209H702.193V20.2375Z" fill="#006AC7"/>
<path fill-rule="evenodd" clip-rule="evenodd" d="M683.652 0.786621H686.766L701.433 18.3016V0.786621H704.952V24.1002H701.837L687.171 6.48889V24.1002H683.652V0.786621ZM685.172 2.30689V22.58H685.651V2.30689H685.172ZM685.666 2.30689L702.549 22.58H703.432V2.30689H702.953V22.4828L686.057 2.30689H685.666Z" fill="#006AC7"/>
<path d="M662.106 1.39209L651.48 23.1854H653.689L656.846 16.5527H669.261L672.417 23.1854H674.627L664.106 1.39209H662.106ZM657.688 14.7629L663.159 3.49773L668.63 14.7629H657.688Z" fill="#006AC7"/>
<path fill-rule="evenodd" clip-rule="evenodd" d="M661.631 0.786621H664.581L675.837 24.1002H671.937L668.78 17.4675H657.325L654.168 24.1002H650.263L661.631 0.786621ZM662.58 2.30689L652.695 22.58H653.209L656.365 15.9472H669.74L672.896 22.58H673.415L663.628 2.30689H663.349L669.843 15.6777H656.473L662.967 2.30689H662.58ZM658.9 14.1574H667.415L663.158 5.39144L658.9 14.1574Z" fill="#006AC7"/>
<path d="M639.801 20.2375L624.019 1.39209H622.02V23.1854H624.019V4.2347L639.801 23.1854H641.8V1.39209H639.801V20.2375Z" fill="#006AC7"/>
<path fill-rule="evenodd" clip-rule="evenodd" d="M621.26 0.786621H624.373L639.041 18.3016V0.786621H642.56V24.1002H639.445L624.779 6.48889V24.1002H621.26V0.786621ZM622.78 2.30689V22.58H623.259V2.30689H622.78ZM623.273 2.30689L640.157 22.58H641.04V2.30689H640.561V22.4828L623.664 2.30689H623.273Z" fill="#006AC7"/>
<path d="M609.815 1.39209H607.816V23.1854H609.815V1.39209Z" fill="#006AC7"/>
<path fill-rule="evenodd" clip-rule="evenodd" d="M607.057 0.786621H610.575V24.1002H607.057V0.786621ZM608.576 2.30689V22.58H609.056V2.30689H608.576Z" fill="#006AC7"/>
<path d="M581.618 23.1854H583.617V13.0784H596.874V11.2886H583.617V3.0766H597.716V1.39209H581.618V23.1854Z" fill="#006AC7"/>
<path fill-rule="evenodd" clip-rule="evenodd" d="M580.858 0.786621H598.475V3.9914H584.377V10.6831H597.634V13.9932H584.377V24.1002H580.858V0.786621ZM582.378 2.30689V22.58H582.857V12.4729H596.114V12.2034H582.857V2.47113H596.956V2.30689H582.378Z" fill="#006AC7"/>
<path d="M742.91 69.3538C741.332 64.7214 738.386 61.3524 733.967 59.2467C729.548 57.1411 723.236 55.983 715.239 55.983C697.985 55.983 689.462 59.7731 689.462 67.2481C689.462 70.3013 691.04 72.6175 694.302 74.0915C697.458 75.6707 703.561 77.0393 712.609 78.5133L727.023 80.6189C739.649 82.4087 749.329 84.7249 756.167 87.5675C763.006 90.4101 767.741 93.9897 770.687 98.4116C773.528 102.833 775.001 108.308 775.001 114.941C775.001 126.522 770.161 135.155 760.586 141.051C751.012 146.946 736.808 149.894 718.08 149.894C699.352 149.894 684.517 146.736 674.312 140.524C664.211 134.313 658.319 124.732 656.636 111.993H686.411C688.726 122.416 699.142 127.575 717.659 127.575C727.234 127.575 734.178 126.627 738.492 124.837C742.805 123.048 744.91 120.1 744.91 116.099C744.91 113.046 743.121 110.73 739.649 109.045C736.177 107.361 729.864 105.887 720.816 104.623L707.454 102.728C690.094 100.096 677.889 96.2006 670.945 90.9366C663.895 85.7777 660.423 77.9869 660.423 67.6693C660.423 57.3516 665.263 48.9291 674.943 43.0333C684.622 37.2428 698.09 34.2949 715.45 34.2949C732.81 34.2949 745.225 36.8217 754.379 41.8752C763.532 46.9287 769.529 54.9302 772.475 65.7742L742.91 69.3538Z" fill="#006AC7"/>
<path d="M629.806 149.777L590.666 92.9247L569.624 108.506V149.777H538.586V1.01367H569.624V79.1328L620.021 41.0208H660.212L613.603 75.9743L665.052 149.777H629.806Z" fill="#006AC7"/>
<path d="M490.504 149.777V1.01367H521.542V149.777H490.504Z" fill="#006AC7"/>
<path d="M478.825 91.7328C478.825 109.525 472.828 123.633 460.939 134.161C449.05 144.69 432.847 149.848 412.646 149.848C392.445 149.848 376.558 144.795 365.195 134.688C353.832 124.581 348.15 110.473 348.15 92.575C348.15 80.994 350.781 70.887 356.041 62.1486C361.302 53.4102 368.877 46.5669 378.873 41.7239C388.763 36.881 400.547 34.4595 414.119 34.4595C434.425 34.4595 450.207 39.513 461.675 49.5148C473.144 59.6218 478.825 73.7296 478.825 91.7328ZM446.84 92.1539C446.84 81.3099 444 72.9926 438.213 67.0968C432.426 61.2011 424.219 58.2532 413.488 58.2532C402.756 58.2532 394.76 61.2011 388.868 67.2021C383.081 73.2032 380.135 81.5204 380.135 92.2592C380.135 102.998 382.976 111.42 388.763 117.316C394.549 123.212 402.651 126.16 413.277 126.16C423.904 126.16 432.005 123.212 438.002 117.316C443.894 111.42 446.84 102.998 446.84 92.1539Z" fill="#006AC7"/>
<path d="M262.086 89.9768V149.777H228.733V1.01367H347.414V28.2817H262.086V62.7088H343.1V89.9768H262.086Z" fill="#006AC7"/>
<path d="M180.335 39.454L160.871 65.8798L106.37 60.4051H106.265L54.1847 54.8252L71.1241 31.3473L136.041 38.9276L156.662 9.76454L57.8672 0.0786133L0 80.6192L13.6777 110.625L33.0369 84.1988L87.6425 89.6735L139.723 95.2534L122.889 118.837L57.9724 111.151L37.3507 140.314L136.146 150L193.908 69.4593L180.335 39.454Z" fill="#006AC7"/>
</svg>