<svg viewBox="0 0 34 34" xmlns="http://www.w3.org/2000/svg">
  <path fill-rule="evenodd" clip-rule="evenodd" d="M22.64.84a3.5 3.5 0 1 0 0 7 3.5 3.5 0 0 0 0-7ZM12.1 1.1c2.33 2.33 4.69 5.25 7.3 7.25 1.17.9 2.49 1.33 4.24.41.02.02.02-.13 0 0l-3.9 3.9a3.23 3.23 0 0 1-4.55 0L8.11 5.57C5.28 2.74 9.63-1.37 12.1 1.1Z" fill="#006AC7"/>
  <path fill-rule="evenodd" clip-rule="evenodd" d="M22.64.84a3.5 3.5 0 1 0 0 7 3.5 3.5 0 0 0 0-7ZM12.1 1.1c2.33 2.33 4.69 5.25 7.3 7.25 1.17.9 2.49 1.33 4.24.41.02.02.02-.13 0 0l-.13.13a12.66 12.66 0 0 1-5.52 1.26A12.68 12.68 0 0 1 7.33 4.37c-.9-2.63 2.64-5.4 4.76-3.28ZM10.69 33.16a3.5 3.5 0 1 0 0-7 3.5 3.5 0 0 0 0 7Zm10.55-.25c-2.33-2.33-4.69-5.25-7.3-7.25-1.17-.9-2.5-1.33-4.24-.41-.02-.02-.02.13 0 0l3.9-3.9a3.23 3.23 0 0 1 4.54 0l7.07 7.07c2.84 2.84-1.52 6.95-3.97 4.5Z" fill="#006AC7"/>
  <path fill-rule="evenodd" clip-rule="evenodd" d="M10.69 33.16a3.5 3.5 0 1 0 0-7 3.5 3.5 0 0 0 0 7Zm10.55-.25c-2.33-2.33-4.69-5.25-7.3-7.25-1.17-.9-2.5-1.33-4.24-.41-.02-.02-.02.13 0 0l.12-.13a12.66 12.66 0 0 1 5.53-1.26c4.46 0 8.38 2.3 10.64 5.77.9 2.63-2.63 5.4-4.75 3.28ZM32.82 22.98a3.5 3.5 0 1 0-7 0 3.5 3.5 0 0 0 7 0Zm-.24-10.56c-2.34 2.34-5.25 4.7-7.26 7.3-.9 1.17-1.33 2.5-.41 4.24-.01.02.13.02 0 0L21 20.07a3.23 3.23 0 0 1 0-4.55l7.08-7.07c2.83-2.84 6.94 1.52 4.49 3.97Z" fill="#006AC7"/>
  <path fill-rule="evenodd" clip-rule="evenodd" d="M32.82 22.98a3.5 3.5 0 1 0-7 0 3.5 3.5 0 0 0 7 0Zm-.24-10.56c-2.34 2.34-5.25 4.7-7.26 7.3-.9 1.17-1.33 2.5-.41 4.24-.01.02.13.02 0 0l-.13-.12a12.64 12.64 0 0 1-1.26-5.53c0-4.46 2.3-8.37 5.78-10.64 2.62-.9 5.4 2.64 3.28 4.75ZM.5 11.02a3.5 3.5 0 0 0 3.5 3.5 3.5 3.5 0 1 0-3.5-3.5Zm.25 10.56c2.33-2.34 5.25-4.7 7.26-7.3.9-1.17 1.32-2.5.41-4.24.01-.02-.13-.02 0 0l3.89 3.89a3.23 3.23 0 0 1 0 4.55l-7.07 7.07C2.4 28.4-1.7 24.03.75 21.57Z" fill="#006AC7"/>
  <path fill-rule="evenodd" clip-rule="evenodd" d="M.5 11.02a3.5 3.5 0 1 0 7 0 3.5 3.5 0 0 0-7 0Zm.25 10.56c2.33-2.34 5.25-4.7 7.26-7.3.9-1.17 1.32-2.5.41-4.24.01-.02-.13-.02 0 0l.12.12a12.63 12.63 0 0 1 1.27 5.53c0 4.45-2.3 8.38-5.78 10.64-2.62.9-5.4-2.63-3.28-4.75Z" fill="#006AC7"/>
</svg>
