<svg width="740" height="801" viewBox="0 0 740 801" fill="none" xmlns="http://www.w3.org/2000/svg">
<path d="M115.121 310.662C-13.571 235.842 -8.775 67.4316 9.70953 -7.42123C22.4987 -72.2382 52.823 -98.7711 92.1406 -122.951C131.458 -147.132 254.538 -210.327 385.378 -192.139C516.218 -173.95 659.027 -176.082 735.767 -192.139C812.507 -208.195 939.702 -213.142 1044.17 -173.136C1148.64 -133.13 1177.33 101.819 1184.23 132.615C1191.12 163.412 1184.23 325.934 1184.23 325.934C1184.23 325.934 1188.14 537.679 1233.69 610.24C1291.59 702.487 1181.23 727.77 1122.78 743.774L1014.87 765.28C966.576 774.282 833.22 793.888 686.143 800.289C539.067 806.691 376.07 768.281 312.956 748.276C282.981 737.106 206.545 706.565 140.6 673.756C74.6553 640.948 115.121 579.398 143.598 552.725L174.072 522.217C208.044 482.873 243.814 385.481 115.121 310.662Z" fill="#10131D"/>
</svg>
