<svg viewBox="0 0 22 22" fill="none" xmlns="http://www.w3.org/2000/svg">
<path d="M13.7273 8.2727L16.4545 11L13.7273 13.7273M8.2727 13.7273L5.5455 11L8.2727 8.2727M3.7273 21H18.2727C18.996 21 19.6897 20.7127 20.2012 20.2012C20.7127 19.6897 21 18.996 21 18.2727V3.7273C21 3.004 20.7127 2.3103 20.2012 1.7988C19.6897 1.2873 18.996 1 18.2727 1H3.7273C3.004 1 2.3103 1.2873 1.7988 1.7988C1.2873 2.3103 1 3.004 1 3.7273V18.2727C1 18.996 1.2873 19.6897 1.7988 20.2012C2.3103 20.7127 3.004 21 3.7273 21Z" stroke="white" stroke-width="1.5" stroke-linecap="round" stroke-linejoin="round"/>
</svg>
