<svg viewBox="0 0 22 22" fill="none" xmlns="http://www.w3.org/2000/svg">
<path d="M1 12.25C1 11.56 1.56 11 2.25 11H4.75C5.44 11 6 11.56 6 12.25V19.75C6 20.44 5.44 21 4.75 21H2.25C1.9185 21 1.6005 20.8683 1.3661 20.6339C1.1317 20.3995 1 20.0815 1 19.75V12.25ZM8.5 7.25C8.5 6.56 9.06 6 9.75 6H12.25C12.94 6 13.5 6.56 13.5 7.25V19.75C13.5 20.44 12.94 21 12.25 21H9.75C9.4185 21 9.1005 20.8683 8.8661 20.6339C8.6317 20.3995 8.5 20.0815 8.5 19.75V7.25ZM16 2.25C16 1.56 16.56 1 17.25 1H19.75C20.44 1 21 1.56 21 2.25V19.75C21 20.44 20.44 21 19.75 21H17.25C16.9185 21 16.6005 20.8683 16.3661 20.6339C16.1317 20.3995 16 20.0815 16 19.75V2.25Z" stroke="white" stroke-width="1.5" stroke-linecap="round" stroke-linejoin="round"/>
</svg>
