<svg viewBox="0 0 22 19" fill="none" xmlns="http://www.w3.org/2000/svg">
<path d="M1 15.7784C6.4724 15.7739 11.921 16.5066 17.2021 17.9573C17.9477 18.1626 18.6923 17.6026 18.6923 16.8206V15.7784M2.5385 1V1.7778C2.5385 1.9841 2.4574 2.1819 2.3132 2.3278C2.1689 2.4737 1.9732 2.5556 1.7692 2.5556H1M1 2.5556V2.1667C1 1.5227 1.5169 1 2.1538 1H19.4615M1 2.5556V11.8893M19.4615 1V1.7778C19.4615 2.2072 19.8062 2.5556 20.2308 2.5556H21M19.4615 1H19.8462C20.4831 1 21 1.5227 21 2.1667V12.2782C21 12.9223 20.4831 13.4449 19.8462 13.4449H19.4615M1 11.8893V12.2782C1 12.5877 1.1216 12.8844 1.338 13.1032C1.5543 13.322 1.8478 13.4449 2.1538 13.4449H2.5385M1 11.8893H1.7692C1.9732 11.8893 2.1689 11.9713 2.3132 12.1171C2.4574 12.263 2.5385 12.4608 2.5385 12.6671V13.4449M19.4615 13.4449V12.6671C19.4615 12.4608 19.5426 12.263 19.6868 12.1171C19.8311 11.9713 20.0268 11.8893 20.2308 11.8893H21M19.4615 13.4449H2.5385M14.0769 7.2225C14.0769 8.0476 13.7527 8.839 13.1757 9.4224C12.5987 10.0059 11.8161 10.3337 11 10.3337C10.1839 10.3337 9.4013 10.0059 8.8243 9.4224C8.2473 8.839 7.9231 8.0476 7.9231 7.2225C7.9231 6.3973 8.2473 5.606 8.8243 5.0225C9.4013 4.439 10.1839 4.1112 11 4.1112C11.8161 4.1112 12.5987 4.439 13.1757 5.0225C13.7527 5.606 14.0769 6.3973 14.0769 7.2225ZM17.1538 7.2225H17.1621V7.2308H17.1538V7.2225ZM4.8462 7.2225H4.8544V7.2308H4.8462V7.2225Z" stroke="white" stroke-width="1.5" stroke-linecap="round" stroke-linejoin="round"/>
</svg>
