<svg width="25" height="19" viewBox="0 0 25 19" fill="none" xmlns="http://www.w3.org/2000/svg">
<path d="M20.8858 2.01158C19.3742 1.30617 17.6611 0.802315 15.948 0.5L15.3434 1.70926C13.4287 1.50772 11.6148 1.50772 9.80092 1.81003C9.59937 1.30617 9.39783 0.903087 9.09551 0.5C7.28162 0.802315 5.66928 1.30617 4.1577 2.01158C1.03378 6.64707 0.126832 11.081 0.630691 15.515C2.44458 16.825 4.46001 17.8327 6.67699 18.5381C7.18085 17.9335 7.58394 17.2281 7.88625 16.5227V16.4219C7.28162 16.2204 6.57622 15.9181 5.97159 15.515C6.07236 15.4142 6.27391 15.3134 6.37468 15.2127C10.3048 17.0266 14.638 17.0266 18.5681 15.2127C18.6688 15.3134 18.7696 15.4142 18.9711 15.515C18.3665 15.8173 17.7619 16.1196 17.0565 16.4219C17.4596 17.1273 17.8626 17.732 18.2657 18.4374C20.4827 17.8327 22.4981 16.7242 24.312 15.4142C25.0174 10.4764 23.7074 5.94167 20.8858 2.01158ZM8.49088 12.8949C7.28162 12.8949 6.27391 11.7864 6.27391 10.4764C6.27391 9.16637 7.28162 8.05788 8.49088 8.05788C9.70014 8.05788 10.7079 9.16637 10.7079 10.4764C10.7079 11.7864 9.70014 12.8949 8.49088 12.8949ZM16.5526 12.8949C15.3434 12.8949 14.3356 11.7864 14.3356 10.4764C14.3356 9.16637 15.3434 8.05788 16.5526 8.05788C17.7619 8.05788 18.7696 9.16637 18.7696 10.4764C18.7696 11.7864 17.7619 12.8949 16.5526 12.8949Z" fill="currentColor"/>
</svg>
