<svg width="25" height="25" viewBox="0 0 25 25" fill="none" xmlns="http://www.w3.org/2000/svg">
<path d="M0.5 12.5004C0.5 18.5004 4.8 23.4004 10.5 24.4004V15.7004H7.5V12.4004H10.5V9.80042C10.5 6.80042 12.4 5.10042 15.2 5.10042C16.1 5.10042 17 5.20042 17.9 5.40042V8.50042H16.4C14.9 8.50042 14.6 9.20042 14.6 10.2004V12.5004H17.8L17.3 15.8004H14.6V24.5004C20.3 23.5004 24.6 18.5004 24.6 12.6004C24.6 6.00042 19.2 0.500417 12.6 0.500417C11.0157 0.487214 9.44455 0.787857 7.97708 1.385C6.50961 1.98214 5.17492 2.86396 4.05 3.97958C2.92508 5.0952 2.03222 6.42254 1.42292 7.885C0.813617 9.34746 0.499945 10.9161 0.5 12.5004Z" fill="currentColor"/>
</svg>
