<svg width="25" height="24" viewBox="0 0 25 24" fill="none" xmlns="http://www.w3.org/2000/svg">
<path d="M12.5 0.5C5.874 0.5 0.5 5.873 0.5 12.5C0.5 17.802 3.938 22.3 8.707 23.887C9.306 23.998 9.5 23.626 9.5 23.31V21.076C6.162 21.802 5.467 19.66 5.467 19.66C4.921 18.273 4.134 17.904 4.134 17.904C3.045 17.159 4.217 17.175 4.217 17.175C5.422 17.259 6.056 18.412 6.056 18.412C7.126 20.246 8.863 19.716 9.548 19.409C9.655 18.634 9.966 18.104 10.31 17.805C7.645 17.5 4.843 16.471 4.843 11.874C4.843 10.563 5.312 9.493 6.079 8.653C5.955 8.35 5.544 7.129 6.196 5.477C6.196 5.477 7.204 5.155 9.497 6.707C10.454 6.441 11.48 6.308 12.5 6.303C13.52 6.308 14.547 6.441 15.506 6.707C17.797 5.155 18.803 5.477 18.803 5.477C19.456 7.13 19.045 8.351 18.921 8.653C19.691 9.493 20.156 10.564 20.156 11.874C20.156 16.483 17.349 17.498 14.677 17.795C15.107 18.167 15.5 18.897 15.5 20.017V23.31C15.5 23.629 15.692 24.004 16.301 23.886C21.066 22.297 24.5 17.8 24.5 12.5C24.5 5.873 19.127 0.5 12.5 0.5Z" fill="currentColor"/>
</svg>
