<svg width="25" height="25" viewBox="0 0 25 25" fill="none" xmlns="http://www.w3.org/2000/svg">
<path d="M12.5 2.664L17.348 2.73C18.52 2.785 19.157 2.98 19.578 3.144C20.0985 3.33754 20.5695 3.64426 20.957 4.042C21.379 4.464 21.637 4.862 21.855 5.421C22.019 5.847 22.214 6.48 22.269 7.651L22.34 12.5L22.27 17.348C22.215 18.52 22.02 19.157 21.856 19.578C21.664 20.0992 21.3571 20.5706 20.958 20.957C20.5716 21.3561 20.1002 21.663 19.579 21.855C19.157 22.019 18.52 22.214 17.349 22.269L12.5 22.34C9.297 22.34 8.918 22.324 7.652 22.27C6.48 22.215 5.843 22.02 5.422 21.856C4.90075 21.664 4.42943 21.3571 4.043 20.958C3.64395 20.5716 3.33702 20.1002 3.145 19.579C2.981 19.157 2.786 18.52 2.731 17.349L2.66 12.5L2.73 7.652C2.785 6.48 2.98 5.847 3.144 5.422C3.363 4.863 3.621 4.465 4.042 4.043C4.42951 3.64526 4.90051 3.33854 5.421 3.145C5.843 2.981 6.48 2.786 7.651 2.731L12.5 2.664ZM12.5 0.5L7.551 0.57C6.274 0.629 5.403 0.832 4.641 1.129C3.852 1.438 3.18 1.848 2.516 2.516C1.852 3.184 1.438 3.852 1.129 4.641C0.832 5.403 0.629 6.274 0.57 7.551L0.5 12.5L0.57 17.449C0.629 18.726 0.832 19.597 1.129 20.359C1.438 21.148 1.848 21.82 2.516 22.484C3.184 23.148 3.852 23.562 4.641 23.871C5.403 24.168 6.274 24.371 7.551 24.43L12.5 24.5L17.449 24.43C18.726 24.371 19.597 24.168 20.359 23.871C21.148 23.562 21.82 23.152 22.484 22.484C23.148 21.816 23.562 21.148 23.871 20.359C24.168 19.597 24.371 18.726 24.43 17.449L24.5 12.5L24.43 7.551C24.371 6.274 24.168 5.403 23.871 4.641C23.562 3.852 23.152 3.18 22.484 2.516C21.816 1.852 21.148 1.438 20.359 1.129C19.597 0.832 18.726 0.629 17.449 0.57L12.5 0.5ZM12.5 6.336C10.8657 6.33759 9.29878 6.98752 8.14315 8.14315C6.98752 9.29878 6.33759 10.8657 6.336 12.5C6.33759 14.1343 6.98752 15.7012 8.14315 16.8569C9.29878 18.0125 10.8657 18.6624 12.5 18.664C14.1343 18.6624 15.7012 18.0125 16.8569 16.8569C18.0125 15.7012 18.6624 14.1343 18.664 12.5C18.6624 10.8657 18.0125 9.29878 16.8569 8.14315C15.7012 6.98752 14.1343 6.33759 12.5 6.336ZM12.5 16.5C11.4391 16.5 10.4217 16.0786 9.67157 15.3284C8.92143 14.5783 8.5 13.5609 8.5 12.5C8.5 11.4391 8.92143 10.4217 9.67157 9.67157C10.4217 8.92143 11.4391 8.5 12.5 8.5C13.5609 8.5 14.5783 8.92143 15.3284 9.67157C16.0786 10.4217 16.5 11.4391 16.5 12.5C16.5 13.5609 16.0786 14.5783 15.3284 15.3284C14.5783 16.0786 13.5609 16.5 12.5 16.5ZM20.344 6.094C20.3443 6.47557 20.1931 6.84164 19.9236 7.11182C19.6542 7.382 19.2886 7.53421 18.907 7.535C18.7177 7.53513 18.5303 7.49795 18.3554 7.42558C18.1805 7.35321 18.0216 7.24707 17.8878 7.11323C17.7539 6.9794 17.6478 6.82049 17.5754 6.6456C17.5031 6.47071 17.4659 6.28327 17.466 6.094C17.4668 5.71243 17.619 5.34678 17.8892 5.07735C18.1594 4.80792 18.5254 4.65673 18.907 4.657C19.2882 4.65753 19.6537 4.8092 19.9232 5.07876C20.1928 5.34833 20.3445 5.71378 20.345 6.095L20.344 6.094Z" fill="currentColor"/>
</svg>
