<svg width="25" height="25" viewBox="0 0 25 25" fill="none" xmlns="http://www.w3.org/2000/svg">
<path fill-rule="evenodd" clip-rule="evenodd" d="M0.5 2.5C0.5 2 0.7 1.5 1.1 1.1C1.5 0.7 2 0.5 2.5 0.5H22.5C22.8 0.5 23 0.6 23.3 0.7C23.5 0.8 23.8 0.9 24 1.1C24.2 1.3 24.3 1.5 24.4 1.8C24.4 2 24.5 2.2 24.5 2.5V22.5C24.5 22.8 24.4 23 24.3 23.3C24.2 23.5 24.1 23.8 23.9 24C23.7 24.2 23.5 24.3 23.2 24.4C23 24.4 22.8 24.5 22.5 24.5H2.5C2.2 24.5 2 24.4 1.7 24.3C1.5 24.2 1.2 24.1 1 23.9C0.8 23.7 0.7 23.5 0.6 23.2C0.6 23 0.5 22.8 0.5 22.5V2.5ZM10 9.7H13.2V11.3C13.7 10.3 14.9 9.5 16.7 9.5C20.2 9.5 21 11.4 21 14.8V21.2H17.5V15.6C17.5 13.6 17 12.5 15.8 12.5C14.1 12.5 13.5 13.7 13.5 15.6V21.2H10V9.7ZM4 21H7.5V9.5H4V21ZM8 5.7C8 6 8 6.3 7.8 6.6C7.7 6.9 7.6 7.2 7.4 7.4C7.1 7.6 6.9 7.8 6.6 7.9C6.3 8 6 8 5.7 8C5.4 8 5.2 8 4.9 7.9C4.6 7.8 4.4 7.6 4.1 7.4C3.9 7.2 3.8 6.9 3.7 6.6C3.5 6.3 3.5 6 3.5 5.7C3.5 5.1 3.8 4.6 4.2 4.1C4.6 3.8 5.2 3.5 5.7 3.5C6.2 3.5 6.9 3.7 7.3 4.1C7.7 4.5 8 5.2 8 5.7Z" fill="currentColor"/>
</svg>
