<svg width="25" height="25" viewBox="0 0 25 25" fill="none" xmlns="http://www.w3.org/2000/svg">
<path fill-rule="evenodd" clip-rule="evenodd" d="M24.5 12.5C24.5 19.1 19.1 24.5 12.5 24.5C5.9 24.5 0.5 19.1 0.5 12.5C0.5 5.9 5.9 0.5 12.5 0.5C19.1 0.5 24.5 5.9 24.5 12.5ZM20.2 11.6C20.4 11.9 20.5 12.2 20.5 12.5C20.5 12.8 20.4 13.2 20.2 13.4C20 13.7 19.8 13.9 19.5 14.1V14.6C19.5 17.3 16.4 19.5 12.5 19.5C8.6 19.5 5.5 17.3 5.5 14.6V14.1C5.3 14 5.1 13.8 4.9 13.6C4.80186 13.5123 4.72414 13.4042 4.67231 13.2833C4.62048 13.1624 4.59579 13.0315 4.6 12.9C4.5 12.7 4.5 12.5 4.6 12.2C4.6 12 4.7 11.7 4.9 11.5C5 11.3 5.2 11.1 5.4 11C5.6 10.9 5.9 10.8 6.1 10.8C6.4 10.8 6.6 10.8 6.8 10.9C7 11 7.3 11.1 7.4 11.3C8.8 10.4 10.4 9.8 12.1 9.8L13 5.6C13 5.6 13 5.5 13.1 5.5L13.2 5.4C13.2 5.4 13.3 5.4 13.3 5.3H13.4L16.3 5.9C16.4 5.7 16.7 5.5 16.9 5.4C17.2 5.3 17.5 5.3 17.7 5.4C18.2 5.5 18.4 5.7 18.5 5.9C18.6 6.2 18.7 6.4 18.6 6.7C18.5 7 18.4 7.2 18.2 7.4C18 7.6 17.7 7.7 17.4 7.6C17.1 7.6 16.8 7.5 16.6 7.3C16.4 7.1 16.3 6.8 16.2 6.6L13.6 6.1L12.8 9.8C14.5 9.8 16.1 10.3 17.4 11.3C17.6 11.1 17.8 11 18 10.9C18.2 10.8 18.5 10.8 18.7 10.8C19 10.8 19.2 10.9 19.4 11C19.9 11.2 20 11.4 20.2 11.6ZM8.7 13C8.6 13.2 8.6 13.3 8.5 13.5V14C8.6 14.3 8.7 14.6 9 14.8C9.3 15 9.6 15 9.9 15C10.1 15 10.2 14.9 10.3 14.8L10.6 14.5C10.8 14.2 10.8 13.9 10.8 13.6C10.7 13.3 10.6 13 10.3 12.8C10.1 12.5 9.8 12.5 9.5 12.5C9.2 12.6 8.9 12.8 8.7 13ZM12.5 17.9C13.6 17.9 14.6 17.7 15.5 17C15.6 16.9 15.6 16.9 15.6 16.8C15.6 16.7 15.6 16.6 15.5 16.6L15.4 16.5H15.3C15.2 16.5 15.1 16.5 15.1 16.6C14.4 17.1 13.5 17.4 12.6 17.3C11.7 17.3 10.8 17.1 10.1 16.5H9.8C9.7 16.5 9.6 16.5 9.6 16.6C9.5 16.6 9.5 16.7 9.5 16.8C9.5 16.9 9.5 17 9.6 17C10.4 17.6 11.4 18 12.5 17.9ZM14.6 14.7C14.8 14.8 15 14.9 15.3 14.9C15.5 14.9 15.6 14.9 15.8 14.8C16 14.7 16.1 14.6 16.2 14.5C16.3 14.4 16.4 14.2 16.5 14.1C16.6 13.9 16.6 13.8 16.6 13.6C16.6 13.4 16.5 13.2 16.4 13C16.3 12.8 16.2 12.7 16 12.6C15.8 12.5 15.6 12.4 15.4 12.4C15.2 12.4 15 12.4 14.8 12.5C14.6 12.6 14.5 12.7 14.4 12.9C14.3 13.1 14.2 13.3 14.2 13.5C14.2 13.7 14.2 13.9 14.3 14.1C14.3 14.5 14.4 14.6 14.6 14.7Z" fill="currentColor"/>
</svg>
