<svg width="25" height="25" viewBox="0 0 25 25" fill="none" xmlns="http://www.w3.org/2000/svg">
<path d="M12.5499 0.5C10.1392 0.5 7.82898 1.20312 5.82006 2.50892C3.81114 3.81472 2.30445 5.72319 1.40044 7.933C0.496426 10.1428 0.295535 12.5535 0.697319 14.8638C1.0991 17.174 2.30445 19.3838 4.01203 20.991C5.71962 22.6986 7.82898 23.8035 10.1392 24.3057C12.4495 24.8079 14.8602 24.5066 17.07 23.6026C19.2798 22.6986 21.1883 21.1919 22.4941 19.1829C23.5813 17.5209 24.2497 15.6203 24.4422 13.6436C24.6346 11.6669 24.3453 9.67304 23.599 7.83255C22.9963 6.32586 22.0923 5.02007 20.9874 3.91516C19.8825 2.81026 18.5767 1.90624 17.07 1.30357C15.6638 0.801338 14.1571 0.5 12.5499 0.5ZM16.3669 18.7812C16.3669 18.8816 16.2664 18.9821 16.166 19.0825C16.0655 19.1829 15.9651 19.1829 15.8647 19.2834C15.7642 19.2834 15.6638 19.3838 15.4629 19.2834C15.3624 19.2834 15.262 19.2834 15.1615 19.1829L11.8468 16.6718L9.8379 18.5803C9.8379 18.5803 9.73745 18.6807 9.63701 18.6807H9.43612L9.8379 15.0647V14.9642C9.8379 14.9642 15.7642 9.64058 15.9651 9.33924C16.166 9.13835 16.166 9.0379 16.166 9.0379C16.166 8.73657 15.7642 9.0379 15.7642 9.0379L7.92943 14.0602L4.71516 12.9553C4.71516 12.9553 4.21293 12.7544 4.21293 12.3526C4.21293 11.9508 4.8156 11.7499 4.8156 11.7499L17.5722 6.72765C17.5722 6.72765 18.6771 6.22542 18.6771 7.02899L16.3669 18.7812Z" fill="currentColor"/>
</svg>
