<svg width="25" height="18" viewBox="0 0 25 18" fill="none" xmlns="http://www.w3.org/2000/svg">
<path d="M23.5645 1.93995C22.6982 0.91719 21.0987 0.5 18.0441 0.5H6.95569C3.83112 0.5 2.20454 0.944101 1.34147 2.03298C0.5 3.09464 0.5 4.65891 0.5 6.8239V10.9504C0.5 15.1446 1.4984 17.2742 6.95569 17.2742H18.0442C20.6931 17.2742 22.161 16.9061 23.1106 16.0035C24.0845 15.0779 24.5 13.5667 24.5 10.9504V6.8239C24.5 4.54073 24.4349 2.96724 23.5645 1.93995ZM15.9081 9.45683L10.8729 12.0703C10.7603 12.1287 10.6372 12.1577 10.5143 12.1577C10.3751 12.1577 10.2362 12.1205 10.1132 12.0465C9.88152 11.9072 9.74008 11.6578 9.74008 11.3889V6.17866C9.74008 5.91017 9.88114 5.66106 10.1123 5.52159C10.3436 5.38211 10.6312 5.37258 10.8711 5.49637L15.9063 8.093C16.1625 8.2251 16.3234 8.48774 16.3237 8.7743C16.3241 9.06109 16.1639 9.32412 15.9081 9.45683Z" fill="currentColor"/>
</svg>
